<svg xmlns="http://www.w3.org/2000/svg" viewBox="0 0 496.12 128.51">
    <title>final logo</title>
    <rect x="62.78" y="25.17" width="58.67" height="82.33" style="fill:#fff"/>
    <rect x="4.11" y="23.09" width="58.67" height="97.73" style="fill:#fff"/>
    <path d="M255.26,232.05c1.45-3.08,4.62-2.48,7.26-3,6.08-1.09,12.21-1.73,18.32-2.58q13.34-1.86,26.68-3.77a26.3,26.3,0,0,0,3.55-.75c3.57-1,6.07,1.31,6.07,5.89,0,20.8.14,41.6.27,62.39.09,14.42.25,28.84.36,43.26,0,4.26-1.75,6.38-5.33,6.12-10.75-.78-21.5-1.67-32.26-2.51-7.08-.55-14.17-1-21.24-1.71-1.41-.14-2.77-1-4.36-1.66-.71,1.52-2.33,1.66-4.16,1.66-18.23-.06-36.46,0-54.69,0-2.93,0-3.65-.83-3.65-4.36q0-48.06,0-96.11c0-3.44.62-4.15,3.56-4.18a30.93,30.93,0,0,1,4,0c1.89.23,2.58-.51,2.51-2.88-.15-5-.05-10,0-15.06a3,3,0,0,1,.49-1.68c1.1,1.67,2.15,3.39,3.32,5,1.61,2.21,3.23,4.44,5,6.47a9.13,9.13,0,0,0,7.63,3.47c3.48-.18,7,.1,10.45-.07a24.74,24.74,0,0,1,13.28,3,17.54,17.54,0,0,0,8.57,1.83C252.21,230.85,253.55,231.55,255.26,232.05Zm57,45.2h-.68q0-18.52,0-37c0-1.81-.18-2.76-2.12-2.46-4.37.69-8.78,1-13.17,1.51-5.46.59-10.93,1.15-16.39,1.75-6.19.68-12.36,1.51-18.56,2-1.84.15-2.38.73-2.38,2.92,0,17.53,0,35.05-.07,52.58,0,4.78-.07,9.56-.1,14.34,0,1.38-.06,2.64,1.71,2.7,5.08.16,10.16.63,15.24.8,11.25.37,22.49.63,33.74.94,2.43.07,2.76-.32,2.76-3.26Q312.31,295.66,312.3,277.26ZM202.2,235.9H200c-3,0-3,0-3,3.53q0,43.61,0,87.22c0,2.2.53,2.81,2.37,2.81,16.61-.08,33.23,0,49.84-.05.55,0,1.1-.11,2-.21a21.62,21.62,0,0,0-14.75-8.54c-5.49-.75-11.09-.33-16.64-.56a23.44,23.44,0,0,1-6.32-.88,16.19,16.19,0,0,1-10.83-16c.29-20.62,0-41.25-.14-61.88C202.48,239.57,202.31,237.85,202.2,235.9Zm82.09,93.89c2.06,0,3.51-1.7,3.54-4.17s-1.79-4.85-3.87-4.79c-1.85.06-3.43,2.08-3.41,4.38C280.56,327.81,282.18,329.79,284.29,329.8Z"
          transform="translate(-192.07 -211.18)" fill="#2E041A"/>
    <path d="M284.29,329.8c-2.11,0-3.73-2-3.74-4.57,0-2.31,1.56-4.33,3.41-4.38,2.08-.06,3.91,2.19,3.87,4.79S286.34,329.81,284.29,329.8Z"
          transform="translate(-192.07 -211.18)" style="fill:#fff"/>
    <path d="M352,315.4a14.18,14.18,0,0,1-5.38-1.9,9.2,9.2,0,0,1-.34-2.8,75.33,75.33,0,0,1,2-14.06q2-9.35,6.22-24.14-10.08,15.79-15.9,26.38t-7.39,16.3q-5.71-3.47-5.71-7.73a144.6,144.6,0,0,0,3.47-16.3A97.79,97.79,0,0,0,330,276.87a58.27,58.27,0,0,0-1.46-13.78,25.92,25.92,0,0,1,4-.34,11.27,11.27,0,0,1,6.94,2q0,10.08-4.93,30.35a184.52,184.52,0,0,1,9.91-18.76,106.48,106.48,0,0,1,10.81-14.84A10.71,10.71,0,0,1,363.4,271q-2.46,6.72-4.26,12.43t-3.36,10.75q4.7-9.07,9.91-17.19t11-15.51A12.79,12.79,0,0,1,385.8,271q-9.3,25.65-9.3,36.18a16.84,16.84,0,0,0,.34,3.7,12.53,12.53,0,0,0,5.82-3.47,4.57,4.57,0,0,1,.11,1.23q0,5.94-8.18,8.62-4.7-5-4.7-14.56a66.8,66.8,0,0,1,1.51-13.38q1.51-7.33,4.42-16.86-10.08,15.91-16,26.54A120.1,120.1,0,0,0,352,315.4Z"
          transform="translate(-192.07 -211.18)" fill="#fff"/>
    <path d="M395.65,317.3q1.12-8.85,1.68-16.69t.56-14.9q0-6.49-.45-12.1A91.64,91.64,0,0,0,396,263q7.39.23,12.1,3.36-1.34,20.94-4.31,33.43T395.65,317.3Zm.67-77.28q6.83-5.82,14.34-5.82a46.3,46.3,0,0,1,.34,5.26q0,8.85-3.58,13.1Q404.16,245.51,396.32,240Z"
          transform="translate(-192.07 -211.18)" fill="#fff"/>
    <path d="M441.91,315.4a14.18,14.18,0,0,1-5.38-1.9,9.2,9.2,0,0,1-.34-2.8,75.33,75.33,0,0,1,2-14.06q2-9.35,6.22-24.14-10.08,15.79-15.9,26.38t-7.39,16.3q-5.71-3.47-5.71-7.73a144.6,144.6,0,0,0,3.47-16.3A97.79,97.79,0,0,0,420,276.87a58.27,58.27,0,0,0-1.46-13.78,25.92,25.92,0,0,1,4-.34,11.27,11.27,0,0,1,6.94,2q0,10.08-4.93,30.35a184.52,184.52,0,0,1,9.91-18.76,106.48,106.48,0,0,1,10.81-14.84,10.71,10.71,0,0,1,8.06,9.52q-2.46,6.72-4.26,12.43t-3.36,10.75q4.7-9.07,9.91-17.19t11-15.51a12.79,12.79,0,0,1,9.07,9.52q-9.3,25.65-9.3,36.18a16.84,16.84,0,0,0,.34,3.7,12.53,12.53,0,0,0,5.82-3.47,4.57,4.57,0,0,1,.11,1.23q0,5.94-8.18,8.62-4.7-5-4.7-14.56a66.8,66.8,0,0,1,1.51-13.38q1.51-7.33,4.42-16.86-10.08,15.91-16,26.54A120.1,120.1,0,0,0,441.91,315.4Z"
          transform="translate(-192.07 -211.18)" fill="#fff"/>
    <path d="M509.55,315.28q.22-4.71.34-9.24t.11-8.79q0-8.06-.39-15.18t-1.18-13.5q-12.54,12.66-16.58,40.21a22,22,0,0,0,13.78-8.74c0,.52,0,1,.06,1.46s.06.9.06,1.34a34,34,0,0,1-.34,5.1,24.87,24.87,0,0,1-1.12,4.42q-4.26,2.46-12.77,2.91a23.94,23.94,0,0,1-9.86-9.3q4.7-33.82,26.1-42.78,6.83,1.34,10.08,5.71.34,4.82.56,9.07t.22,8.06q0,12.54-2.18,19.94T509.55,315.28Z"
          transform="translate(-192.07 -211.18)" fill="#fff"/>
    <path d="M525.34,301.73a33.84,33.84,0,0,0,15,3.81,30.42,30.42,0,0,0,9.86-1.68,73.75,73.75,0,0,0-20.72-21.17,16,16,0,0,1-1-3.42,22.74,22.74,0,0,1-.28-3.64,19.17,19.17,0,0,1,.11-2.13,12,12,0,0,1,.45-2.13,30.65,30.65,0,0,1,20.38-7.84q1.34,0,2.69.11t2.58.34a10.38,10.38,0,0,1,2.91,7.06,11.51,11.51,0,0,1-.9,3.92,16.66,16.66,0,0,0-6.83-1.34q-6.83,0-16.24,4.14,17,9.3,23.41,22.18-1.34,8.4-5.6,12-8.4,2.91-13.66,2.91Q525.46,314.84,525.34,301.73Z"
          transform="translate(-192.07 -211.18)" fill="#fff"/>
    <path d="M563,309.68a147.73,147.73,0,0,0,4.76-24.92,274.62,274.62,0,0,0,1.51-30q0-11.2-.67-23.63a25.81,25.81,0,0,1,6.66,1,20,20,0,0,1,5.32,2.46q-1.23,20.61-2.91,35.45a209,209,0,0,1-4.14,25,181.45,181.45,0,0,1,9.8-18.54,118.93,118.93,0,0,1,10.81-15.06,12.79,12.79,0,0,1,9.07,9.52q-9.41,25.43-9.41,36.06a14.75,14.75,0,0,0,.45,3.81q2.35-.34,5.82-3.58a10,10,0,0,1-1.68,5.94q-1.68,2.35-6,4-5-5-5-15.46,0-11,5.94-29.34-9.52,14.67-16,25.2t-9.8,17.25A6.17,6.17,0,0,1,563,309.68Z"
          transform="translate(-192.07 -211.18)" fill="#fff"/>
    <path d="M639.36,268.8q.9,4.82,1.4,9a64.29,64.29,0,0,1,.5,7.73q0,11.76-4.82,19.43a30.26,30.26,0,0,1-14.34,11.7,26.4,26.4,0,0,1-5.15-3,65.87,65.87,0,0,1-5.49-4.59A51,51,0,0,1,609,293.67q0-20.27,20.5-31.25A17.49,17.49,0,0,1,639.36,268.8ZM622,310.36q10.08-7.73,10.08-21.73a50.31,50.31,0,0,0-.9-9.18,89,89,0,0,0-2.58-10.19,28.71,28.71,0,0,0-7.39,9.63,28.36,28.36,0,0,0-2.58,12.21,56.49,56.49,0,0,0,.78,9.07A65.57,65.57,0,0,0,622,310.36Z"
          transform="translate(-192.07 -211.18)" fill="#fff"/>
    <path d="M649.1,310.58a129.83,129.83,0,0,0,1.51-15.18q.28-7.33.28-13.83a155.84,155.84,0,0,0-1-18.48,10.38,10.38,0,0,1,1.9-.28q1-.05,1.9-.06a11.47,11.47,0,0,1,7.06,2q0,7.39-.73,17.47t-2.86,23.63Q662,302.74,668,292.27t13.22-28.62a7.52,7.52,0,0,1,6.94,3.92q-3.7,13.22-5.49,22.79a89.65,89.65,0,0,0-1.79,16c0,.52,0,1,.06,1.46s.09.9.17,1.34q2.69,0,5.49-3.14a8.89,8.89,0,0,1-2.46,6.66q-2.47,2.41-8.29,3.42-1.68-4-1.68-12.1,0-3.13.17-6.83t.73-7.84q-5,17.36-14.78,25.54Q651.56,314.61,649.1,310.58Z"
          transform="translate(-192.07 -211.18)" fill="#fff"/>
    <path d="M221.74,312.29a95.9,95.9,0,0,0,4-26q0-26.56-19.09-40.7a15.66,15.66,0,0,1,5.3-3,24.66,24.66,0,0,1,6.51-1.21q12.73,10.81,13.94,30.1A145.71,145.71,0,0,0,243,255.12a54.8,54.8,0,0,0,5.15-12.62q6.16,2.42,6.16,7.47,0,9.09-19.9,26.26-.81,14.24-3.79,23T221.74,312.29Z"
          transform="translate(-192.07 -211.18)" style="fill:#fff;stroke:#000;stroke-miterlimit:10"/>
    <line x1="120.11" y1="64.26" x2="120.43" y2="106.82" style="fill:none;stroke:#000;stroke-miterlimit:10"/>
</svg>